<svg width="2560" height="964" viewBox="0 0 2560 964" xmlns="http://www.w3.org/2000/svg"><defs><linearGradient x1="50%" y1="-53.5200856%" x2="50%" y2="100%" id="a"><stop stop-color="#BBB7B7" stop-opacity=".0065833" offset="0%"/><stop stop-color="#CCC" stop-opacity=".2945433" offset="34.1420854%"/><stop stop-color="#FFF" stop-opacity=".5045345" offset="100%"/></linearGradient></defs><g fill="none" fill-rule="evenodd"><path d="M0 0h2560v964H0z"/><path d="M740.178417 308.802842l20.529817-58.005334h80.252918l20.960512 58.005334h36.465547L819.857075 99.0692718h-37.326939L704 308.802842h36.178417zm90.684816-87.98579h-60.362345l18.703825-53.971964c4.912116-13.788113 8.643434-26.490176 11.193956-38.106189.944638 3.777565 2.668601 9.72723 5.171891 17.848996 2.50329 8.121765 4.463413 14.07143 5.880369 17.848995l19.412304 56.380162zM950.9041 307.779751v-78.087983h21.687829c26.348811 0 46.657371-5.805445 60.925681-17.416333 14.26831-11.610889 21.40246-28.313437 21.40246-50.107646 0-20.747326-6.49208-36.450576-19.47624-47.109753-12.98416-10.659176-32.50796-15.9887642-58.571408-15.9887642h-60.06958V307.779751H950.9041zm17.953506-106.401421h-18.292775v-72.639431h23.910242c15.652085 0 27.175097 2.920651 34.569027 8.761955 7.39393 5.841303 11.09089 14.697472 11.09089 26.568508 0 12.813181-4.12908 22.234638-12.38723 28.26437-8.258158 6.029732-21.221542 9.044598-38.890154 9.044598zm129.402514 107.424512l20.52982-58.005334h80.25292l20.96051 58.005334h36.46555l-78.53014-209.7335702h-37.32694l-78.53013 209.7335702h36.17841zm90.68482-87.98579h-60.36235l18.70383-53.971964c4.91211-13.788113 8.64343-26.490176 11.19395-38.106189.94464 3.777565 2.66861 9.72723 5.1719 17.848996 2.50328 8.121765 4.46341 14.07143 5.88036 17.848995l19.41231 56.380162zm131.35346 90.031971c23.49319 0 41.9183-5.289031 55.27531-15.867093 13.35702-10.578063 20.03553-25.158635 20.03553-43.741718 0-9.434488-1.65779-17.630104-4.97336-24.586847-3.31557-6.956744-8.52576-13.198754-15.63055-18.72603-7.1048-5.527275-18.28301-11.483392-33.53464-17.868348-13.54647-5.622574-22.9248-10.149222-28.13499-13.579945-5.21018-3.430723-8.95204-7.075866-11.22558-10.935429-2.27353-3.859564-3.4103-8.505334-3.4103-13.937312 0-7.909723 2.84192-14.270855 8.52576-19.083397 5.68383-4.812541 14.02013-7.218812 25.00888-7.218812 14.49378 0 30.97691 3.907212 49.44938 11.721636l10.79929-27.874623C1372.77916 100.383702 1352.98046 96 1333.08703 96c-20.746 0-37.27649 5.003138-49.59147 15.009413-12.31498 10.006275-18.47247 23.729167-18.47247 41.168675 0 13.913487 3.88396 25.82572 11.65187 35.736697 7.76791 9.910977 21.12492 18.726029 40.07104 26.445156 18.37774 7.433233 30.50326 13.865838 36.37656 19.297816 5.8733 5.431978 8.80994 12.055179 8.80994 19.869604 0 8.672105-3.19715 15.5812-9.59147 20.727284-6.39432 5.146085-16.31735 7.719127-29.76909 7.719127-9.18887 0-19.1119-1.286521-29.7691-3.859563-10.65719-2.573043-20.72232-6.099063-30.19538-10.578063v32.305974c14.96744 7.337936 34.19775 11.006903 57.69094 11.006903zm219.71128 0c26.14102 0 46.29337-5.455802 60.45705-16.367407 14.16369-10.911605 21.24553-26.421332 21.24553-46.52918 0-13.818189-4.18257-24.896566-12.5477-33.235128-8.36512-8.338563-20.91281-13.556121-37.64307-15.652674v-1.143574c13.97357-3.049531 24.81021-8.981823 32.50993-17.796875 7.69972-8.815052 11.54958-19.845779 11.54958-33.092182 0-15.914742-5.89361-28.398761-17.68084-37.452058C1586.11294 100.526648 1569.71539 96 1548.70751 96c-25.2855 0-47.4816 7.052042-66.58831 21.156125l16.39755 23.443273c9.98111-6.480254 18.63142-10.840131 25.9509-13.079631 7.31949-2.2395 14.92415-3.35925 22.81399-3.35925 11.31193 0 19.86717 2.430096 25.66573 7.290287 5.79855 4.86019 8.69783 11.769285 8.69783 20.727284 0 23.062082-16.6352 34.593123-49.90559 34.593123h-18.39378v27.302836h18.1086c18.9166 0 32.79511 2.620691 41.63552 7.862074 8.84042 5.241382 13.26063 13.436998 13.26063 24.586847 0 12.579318-3.99245 21.870859-11.97734 27.874624-7.98489 6.003765-20.05729 9.005648-36.2172 9.005648-9.12559 0-18.63142-1.191224-28.51748-3.57367s-19.2493-5.76552-28.08971-10.149222v29.875879c15.87473 7.528531 35.36167 11.292796 58.46083 11.292796zm128.18258 1.023091c6.77927 0 11.98141-1.948904 15.60644-5.846711 3.62502-3.897808 5.43753-9.180981 5.43753-15.849519 0-6.574614-1.78897-11.763864-5.36692-15.567748-3.57794-3.803885-8.80363-5.705827-15.67705-5.705827-6.77927 0-11.95787 1.8315-15.53582 5.4945-3.57795 3.662999-5.36692 8.922691-5.36692 15.779075 0 6.762462 1.78897 12.069115 5.36692 15.919961 3.57795 3.850846 8.75655 5.776269 15.53582 5.776269zm116.63134-1.023091c24.05963 0 41.93727-8.803338 53.63292-26.410013S1856 239.898881 1856 203.638647c0-35.213351-6.01491-61.956463-18.04472-80.229336C1825.92546 105.136437 1808.2149 96 1784.8236 96c-23.96416 0-41.79406 8.731959-53.48971 26.195878-11.69566 17.463918-17.54348 44.611508-17.54348 81.442769 0 35.118179 6.01491 61.76612 18.04472 79.943822 12.02981 18.177703 29.69264 27.266554 52.98847 27.266554zm.44094-28.646536c-12.7985 0-22.11297-6.084568-27.9434-18.253703-5.83044-12.169135-8.74565-32.466872-8.74565-60.893211s2.91521-48.771611 8.74565-61.035818c5.83043-12.264206 15.1449-18.396309 27.9434-18.396309 12.79851 0 22.16038 6.250942 28.08562 18.752827 5.92523 12.501885 8.88785 32.728318 8.88785 60.6793 0 28.046054-2.96262 48.248719-8.88785 60.607997-5.92524 12.359278-15.28711 18.538917-28.08562 18.538917z" fill="url(#a)" fill-rule="nonzero"/></g></svg>