<svg width="960" height="240" viewBox="0 0 960 240" xmlns="http://www.w3.org/2000/svg" xmlns:xlink="http://www.w3.org/1999/xlink"><defs><path id="a" d="M0 0h960v37.1270718H0z"/><linearGradient x1="49.1050983%" y1="99.1050983%" x2="49.1050983%" y2="5.9534523%" id="b"><stop stop-color="#37C2C6" offset="0%"/><stop stop-color="#6AECDA" offset="46.3773126%"/><stop stop-color="#6DECDB" offset="100%"/></linearGradient><linearGradient x1="49.1050983%" y1="99.1050983%" x2="49.1050983%" y2="24.5853774%" id="d"><stop stop-color="#37D9D9" offset="0%"/><stop stop-color="#65F4E1" offset="100%"/></linearGradient><linearGradient x1="49.1050983%" y1="99.1050983%" x2="49.1050983%" y2="28.6146681%" id="e"><stop stop-color="#14E2DC" offset="0%"/><stop stop-color="#24F5F3" offset="100%"/></linearGradient><linearGradient x1="49.1050983%" y1="99.1050983%" x2="49.1050983%" y2="50%" id="f"><stop stop-color="#00D5E1" offset="0%"/><stop stop-color="#17F6EF" offset="100%"/></linearGradient><linearGradient x1="49.1050983%" y1="99.1050983%" x2="49.1050983%" y2="50%" id="g"><stop stop-color="#00D5E1" offset="0%"/><stop stop-color="#17F6EF" offset="100%"/></linearGradient><path id="h" d="M0 0h960v37.1270718H0z"/><radialGradient cx="48.815918%" cy="100%" fx="48.815918%" fy="100%" r="100%" gradientTransform="matrix(0 -1 .125 0 .363159 1.488159)" id="j"><stop stop-color="#16CBB3" offset="0%"/><stop stop-color="#0BC5D8" offset="48.425686%"/><stop stop-color="#45E8D2" offset="100%"/></radialGradient><linearGradient x1="48.7799982%" y1="100%" x2="48.7799982%" y2="0%" id="k"><stop stop-color="#16CBB3" offset="0%"/><stop stop-color="#3BFFE4" offset="100%"/></linearGradient><linearGradient x1="48.7799982%" y1="100%" x2="48.7799982%" y2="0%" id="l"><stop stop-color="#16CBB3" offset="0%"/><stop stop-color="#39FFF8" offset="100%"/></linearGradient><linearGradient x1="48.6591081%" y1="100%" x2="48.6591081%" y2="0%" id="m"><stop stop-color="#2CE3CB" offset="0%"/><stop stop-color="#18EEEB" stop-opacity=".5775787" offset="100%"/></linearGradient><linearGradient x1="48.7241533%" y1="0%" x2="48.7241533%" y2="100%" id="n"><stop stop-color="#46EFF7" offset="0%"/><stop stop-color="#00E7FF" offset="100%"/></linearGradient><linearGradient x1="48.7241533%" y1="0%" x2="48.7241533%" y2="100%" id="o"><stop stop-color="#07F1FB" offset="0%"/><stop stop-color="#75BEC6" offset="100%"/></linearGradient><linearGradient x1="48.7241533%" y1="0%" x2="48.7241533%" y2="100%" id="p"><stop stop-color="#0FF5FF" offset="0%"/><stop stop-color="#10B9D8" offset="100%"/></linearGradient><linearGradient x1="48.7241533%" y1="0%" x2="48.7241533%" y2="100%" id="q"><stop stop-color="#46EFF7" offset="0%"/><stop stop-color="#00FAFF" offset="100%"/></linearGradient></defs><g fill="none" fill-rule="evenodd"><g transform="translate(0 83.535912)"><mask id="c" fill="#fff"><use xlink:href="#a"/></mask><path d="M751.171729 28.5221689c-24.929312-.2626696-41.995854 5.3255965-55.895801 5.1483097-30.883982-.3975522-37.401197-7.4181408-72.350025-8.0692356-34.948827-.6510948-47.86853 5.1332587-69.070385 5.1332587-21.201856 0-21.585328-30.6028822-42.840747-30.73403-21.25542-.1311477-18.356728 27.125537-39.116602 28.5216972-20.759874 1.3961602-28.563658-22.4564347-50.4646-22.4564347-21.900941 0-26.264506 24.6687675-49.934179 24.6687675-23.669674 0-35.092817-11.9883484-65.353711-12.0823641-35.825576-.1128189-30.908062 14.9108944-64.923296 15.018341-38.072627.1202629-65.305921-8.0692356-83.480596-8.0692356-18.174675 0-45.343855 9.7883803-69.2053652 9.7883803-12.8588553 0-42.3709959.3824077-88.5364218 1.1472229h918s-71.253389.0454338-111.997046-1.1472229c-28.249297-.8269192-29.901914-6.6047848-54.831225-6.8674544z" fill="url(#b)" opacity=".5" mask="url(#c)"/><path d="M751.171729 30.8650286c-24.929312-.1858858-41.995854 3.768812-55.895801 3.6433498-30.883982-.2813393-37.401197-5.2496614-72.350025-5.7104274-34.948827-.460766-47.86853 3.6326987-69.070385 3.6326987-21.201856 0-21.585328-21.6570127-42.840747-21.7498232-21.25542-.0928105-18.356728 19.196169-39.116602 20.1842021-20.759874.988033-28.563658-15.8919441-50.4646-15.8919441-21.900941 0-26.264506 17.4575652-49.934179 17.4575652-23.669674 0-35.092817-8.4839007-65.353711-8.5504336-35.825576-.0798396-30.908062 10.5521247-64.923296 10.6281623-38.072627.0851076-65.305921-5.7104274-83.480596-5.7104274-18.174675 0-45.343855 6.9270298-69.2053652 6.9270298-12.8588553 0-42.3709959.2706218-88.5364218.8118654h74.6644209l884.9764701-.4103708s-112.89428.4425233-153.637937-.4014946c-28.249297-.5851932-29.901914-4.6740665-54.831225-4.8599522z" fill="url(#d)" opacity=".6974749" mask="url(#c)"/><path d="M751.171729 32.464772c-24.929312-.1334564-41.995854 2.7058138-55.895801 2.6157384-30.883982-.2019872-37.401197-3.7689877-72.350025-4.0997941-34.948827-.3308064-47.86853 2.6080914-69.070385 2.6080914-21.201856 0-21.585328-15.5486245-42.840747-15.6152577-21.25542-.0666332-18.356728 13.7818649-39.116602 14.491222-20.759874.7093571-28.563658-11.4096009-50.4646-11.4096009-21.900941 0-26.264506 12.5336366-49.934179 12.5336366-23.669674 0-35.092817-6.0910056-65.353711-6.1387729-35.825576-.0573207-30.908062 7.5758845-64.923296 7.6304756-38.072627.0611028-65.305921-4.0997941-83.480596-4.0997941-18.174675 0-45.343855 4.9732522-69.2053652 4.9732522-12.8588553 0-42.3709959.1942926-88.5364218.5828777h918s-71.253389.0230839-111.997046-.5828777c-28.249297-.4201387-29.901914-3.3557401-54.831225-3.4891965z" fill="url(#e)" opacity=".4337798" style="mix-blend-mode:multiply" mask="url(#c)"/><path d="M751.171729 33.773653c-24.929312-.0905597-41.995854 1.8360879-55.895801 1.7749653-30.883982-.1370627-37.401197-2.5575273-72.350025-2.7820031-34.948827-.2244757-47.86853 1.7697763-69.070385 1.7697763-21.201856 0-21.585328-10.5508524-42.840747-10.5960677-21.25542-.0452154-18.356728 9.3519798-39.116602 9.8333292-20.759874.4813494-28.563658-7.7422292-50.4646-7.7422292-21.900941 0-26.264506 8.5049677-49.934179 8.5049677-23.669674 0-35.092817-4.1331824-65.353711-4.1655959-35.825576-.0388961-30.908062 5.1407788-64.923296 5.1778227-38.072627.0414627-65.305921-2.7820031-83.480596-2.7820031-18.174675 0-45.343855 3.3747069-69.2053652 3.3747069-12.8588553 0-42.3709959.1318148-88.5364218.3954445h74.6644209L960 36.1413221s-113.253389.4111882-153.997046 0c-28.249297-.2850942-29.901914-2.2771094-54.831225-2.3676691z" fill="url(#f)" opacity=".8035017" style="mix-blend-mode:multiply" mask="url(#c)"/><path d="M751.171729 35.082534c-24.929312-.047663-41.995854.9663621-55.895801.9341923-30.883982-.0721383-37.401197-1.346067-72.350025-1.4642122-34.948827-.1181451-47.86853.9314612-69.070385.9314612-21.201856 0-21.585328-5.5530802-42.840747-5.5768777-21.25542-.0237976-18.356728 4.9220946-39.116602 5.1754364-20.759874.2533418-28.563658-4.0748574-50.4646-4.0748574-21.900941 0-26.264506 4.4762987-49.934179 4.4762987-23.669674 0-35.092817-2.1753591-65.353711-2.1924189-35.825576-.0204716-30.908062 2.7056731-64.923296 2.7251699-38.072627.0218224-65.305921-1.4642122-83.480596-1.4642122-18.174675 0-45.343855 1.7761615-69.2053652 1.7761615-12.8588553 0-42.3709959.0693902-88.5364218.2081706h918s-71.253389.0082443-111.997046-.2081706c-28.249297-.1500495-29.901914-1.1984786-54.831225-1.2461416z" fill="url(#g)" opacity=".7432338" style="mix-blend-mode:multiply" mask="url(#c)"/></g><g transform="matrix(1 0 0 -1 0 156.464089)"><mask id="i" fill="#fff"><use xlink:href="#h"/></mask><path d="M751.171729 28.5221689c-24.929312-.2626696-41.995854 5.3255965-55.895801 5.1483097-30.883982-.3975522-37.401197-7.4181408-72.350025-8.0692356-34.948827-.6510948-47.86853 5.1332587-69.070385 5.1332587-21.201856 0-21.585328-30.6028822-42.840747-30.73403-21.25542-.1311477-18.356728 27.125537-39.116602 28.5216972-20.759874 1.3961602-28.563658-22.4564347-50.4646-22.4564347-21.900941 0-26.264506 24.6687675-49.934179 24.6687675-23.669674 0-35.092817-11.9883484-65.353711-12.0823641-35.825576-.1128189-30.908062 14.9108944-64.923296 15.018341-38.072627.1202629-65.305921-8.0692356-83.480596-8.0692356-18.174675 0-45.343855 9.7883803-69.2053652 9.7883803-12.8588553 0-42.3709959.3824077-88.5364218 1.1472229h918s-71.253389.0454338-111.997046-1.1472229c-28.249297-.8269192-29.901914-6.6047848-54.831225-6.8674544z" fill="url(#b)" opacity=".5" mask="url(#i)"/><path d="M751.171729 30.8650286c-24.929312-.1858858-41.995854 3.768812-55.895801 3.6433498-30.883982-.2813393-37.401197-5.2496614-72.350025-5.7104274-34.948827-.460766-47.86853 3.6326987-69.070385 3.6326987-21.201856 0-21.585328-21.6570127-42.840747-21.7498232-21.25542-.0928105-18.356728 19.196169-39.116602 20.1842021-20.759874.988033-28.563658-15.8919441-50.4646-15.8919441-21.900941 0-26.264506 17.4575652-49.934179 17.4575652-23.669674 0-35.092817-8.4839007-65.353711-8.5504336-35.825576-.0798396-30.908062 10.5521247-64.923296 10.6281623-38.072627.0851076-65.305921-5.7104274-83.480596-5.7104274-18.174675 0-45.343855 6.9270298-69.2053652 6.9270298-12.8588553 0-42.3709959.2706218-88.5364218.8118654h74.6644209l884.9764701-.4103708s-112.89428.4425233-153.637937-.4014946c-28.249297-.5851932-29.901914-4.6740665-54.831225-4.8599522z" fill="url(#d)" opacity=".6974749" mask="url(#i)"/><path d="M751.171729 32.464772c-24.929312-.1334564-41.995854 2.7058138-55.895801 2.6157384-30.883982-.2019872-37.401197-3.7689877-72.350025-4.0997941-34.948827-.3308064-47.86853 2.6080914-69.070385 2.6080914-21.201856 0-21.585328-15.5486245-42.840747-15.6152577-21.25542-.0666332-18.356728 13.7818649-39.116602 14.491222-20.759874.7093571-28.563658-11.4096009-50.4646-11.4096009-21.900941 0-26.264506 12.5336366-49.934179 12.5336366-23.669674 0-35.092817-6.0910056-65.353711-6.1387729-35.825576-.0573207-30.908062 7.5758845-64.923296 7.6304756-38.072627.0611028-65.305921-4.0997941-83.480596-4.0997941-18.174675 0-45.343855 4.9732522-69.2053652 4.9732522-12.8588553 0-42.3709959.1942926-88.5364218.5828777h918s-71.253389.0230839-111.997046-.5828777c-28.249297-.4201387-29.901914-3.3557401-54.831225-3.4891965z" fill="url(#e)" opacity=".4337798" style="mix-blend-mode:multiply" mask="url(#i)"/><path d="M751.171729 33.773653c-24.929312-.0905597-41.995854 1.8360879-55.895801 1.7749653-30.883982-.1370627-37.401197-2.5575273-72.350025-2.7820031-34.948827-.2244757-47.86853 1.7697763-69.070385 1.7697763-21.201856 0-21.585328-10.5508524-42.840747-10.5960677-21.25542-.0452154-18.356728 9.3519798-39.116602 9.8333292-20.759874.4813494-28.563658-7.7422292-50.4646-7.7422292-21.900941 0-26.264506 8.5049677-49.934179 8.5049677-23.669674 0-35.092817-4.1331824-65.353711-4.1655959-35.825576-.0388961-30.908062 5.1407788-64.923296 5.1778227-38.072627.0414627-65.305921-2.7820031-83.480596-2.7820031-18.174675 0-45.343855 3.3747069-69.2053652 3.3747069-12.8588553 0-42.3709959.1318148-88.5364218.3954445h74.6644209L960 36.1413221s-113.253389.4111882-153.997046 0c-28.249297-.2850942-29.901914-2.2771094-54.831225-2.3676691z" fill="url(#f)" opacity=".8035017" style="mix-blend-mode:multiply" mask="url(#i)"/><path d="M751.171729 35.082534c-24.929312-.047663-41.995854.9663621-55.895801.9341923-30.883982-.0721383-37.401197-1.346067-72.350025-1.4642122-34.948827-.1181451-47.86853.9314612-69.070385.9314612-21.201856 0-21.585328-5.5530802-42.840747-5.5768777-21.25542-.0237976-18.356728 4.9220946-39.116602 5.1754364-20.759874.2533418-28.563658-4.0748574-50.4646-4.0748574-21.900941 0-26.264506 4.4762987-49.934179 4.4762987-23.669674 0-35.092817-2.1753591-65.353711-2.1924189-35.825576-.0204716-30.908062 2.7056731-64.923296 2.7251699-38.072627.0218224-65.305921-1.4642122-83.480596-1.4642122-18.174675 0-45.343855 1.7761615-69.2053652 1.7761615-12.8588553 0-42.3709959.0693902-88.5364218.2081706h918s-71.253389.0082443-111.997046-.2081706c-28.249297-.1500495-29.901914-1.1984786-54.831225-1.2461416z" fill="url(#g)" opacity=".7432338" style="mix-blend-mode:multiply" mask="url(#i)"/></g><g opacity=".1894996"><path d="M103.344764 107.523193c13.092594 0 17.80058 8.665152 46.866388 8.665152 25.088989 0 39.662383-4.487571 59.867921-27.5243412 28.740244-32.7648321 31.171668 14.5065342 73.738055 25.1372442 21.046233 5.253325 49.003477 6.284311 69.905473-28.4997143 10.014167-16.6626218 11.269107-60.6274584 22.699813-60.6274584 13.439575 0 15.338443 85.8615557 42.755076 85.8615557 25.319768 0 30.454448-65.0404379 40.320256-104.6029352 1.973986-7.9099327 10.926791-7.9105894 13.047008 0C482.969794 44.8288308 493.430786 106.3329 510.362612 106.3329c23.116522 0 28.543768-76.4308408 39.69534-76.4308408 14.202336 0 6.973559 86.6541898 72.654218 86.6541898 35.808229 0 47.685746-36.5880788 70.2886-36.5880788 20.785565 0 39.733605 36.2201748 75.139346 36.3057338 20.283838 0 28.41056-12.025322 42.179008-11.798591 12.247779.201064 18.655985 9.497053 33.689598 11.713032C874.772405 120.722974 914.466452 119.503758 960 120l-960-.004278s52.5362781-.466297 66.9393689-3.439473c16.4306504-3.392416 23.3128018-9.033056 36.4053951-9.033056z" fill="url(#j)" opacity=".45"/><path d="M103.344764 112.210612c13.092594 0 17.80058 5.409736 46.866388 5.409736 25.088989 0 39.662383-2.801633 59.867921-17.183705 28.740244-20.4553922 31.171668 9.056566 73.738055 15.693418 21.046233 3.2797 49.003477 3.923354 69.905473-17.7926394 10.014167-10.4026313 11.269107-37.8502917 22.699813-37.8502917 13.439575 0 15.338443 53.6041751 42.755076 53.6041751 25.319768 0 32.608155-75.2621009 48.047608-74.7755462 15.439453.4865547 26.205688 72.1517422 43.137514 72.1517422 23.116522 0 28.543768-47.7164917 39.69534-47.7164917 14.202336 0 6.973559 54.0990247 72.654218 54.0990247 35.808229 0 47.685746-22.8422813 70.2886-22.8422813 20.785565 0 39.733605 22.6125953 75.139346 22.6660103 20.283838 0 28.41056-7.507521 42.179008-7.365971 12.247779.125526 18.655985 5.9291 33.689598 7.312556C874.772405 120.451359 914.466452 119.690191 960 120l-960-.002671s52.5362781-.291113 66.9393689-2.147295c16.4306504-2.117917 23.3128018-5.639422 36.4053951-5.639422z" fill="url(#k)" opacity=".317127"/><path d="M103.344764 113.855651c13.092594 0 17.80058 4.267255 46.866388 4.267255 25.088989 0 39.662383-2.209957 59.867921-13.554682 28.740244-16.1354233 31.171668 7.143911 73.738055 12.379128 21.046233 2.587061 49.003477 3.094783 69.905473-14.035016 10.014167-8.2057019 11.269107-29.8566976 22.699813-29.8566976 13.439575 0 15.338443 42.2835226 42.755076 42.2835226 25.319768 0 32.608155-59.3675163 48.047608-58.9837169 15.439453.3837993 26.205688 56.9140329 43.137514 56.9140329 23.116522 0 28.543768-37.639257 39.69534-37.639257 14.202336 0 6.973559 42.673865 72.654218 42.673865 35.808229 0 47.685746-18.018226 70.2886-18.018226 20.785565 0 39.733605 17.837047 75.139346 17.879182 20.283838 0 28.41056-5.92201 42.179008-5.810354 12.247779.099016 18.655985 4.676934 33.689598 5.768219C874.772405 120.356037 914.466452 119.75562 960 120l-960-.002107s52.5362781-.229633 66.9393689-1.693808c16.4306504-1.670635 23.3128018-4.448434 36.4053951-4.448434z" fill="url(#l)" opacity=".296968"/><path d="M103.344764 115.290155c13.092594 0 17.80058 3.270991 46.866388 3.270991 25.088989 0 39.662383-1.694004 59.867921-10.390108 28.740244-12.3683297 31.171668 5.476043 73.738055 9.489008 21.046233 1.983067 49.003477 2.372252 69.905473-10.7583 10.014167-6.289939 11.269107-22.886136 22.699813-22.886136 13.439575 0 15.338443 32.411704 42.755076 32.411704 25.319768 0 30.206787-43.4991372 48.028565-43.4991372 17.821777 0 26.224731 41.9126572 43.156557 41.9126572 23.116522 0 28.543768-28.8517229 39.69534-28.8517229 14.202336 0 6.973559 32.7109139 72.654218 32.7109139 35.808229 0 47.685746-13.811559 70.2886-13.811559 20.785565 0 39.733605 13.67268 75.139346 13.704978 20.283838 0 28.41056-4.539415 42.179008-4.453827 12.247779.0759 18.655985 3.585024 33.689598 4.421529C874.772405 120.272914 914.466452 119.812674 960 120c-211.242188-.000355-369.673829-.000622-475.294923-.0008-107.71224-.000181-269.280599-.000452-484.705077-.000815 0 0 52.5362781-.176021 66.9393689-1.29836 16.4306504-1.280596 23.3128018-3.40987 36.4053951-3.40987z" fill="url(#m)" opacity=".5954939" style="mix-blend-mode:multiply"/><path d="M103.344764 117.886076c13.092594 0 17.80058 1.468122 46.866388 1.468122 25.088989 0 39.662383-.760321 59.867921-4.663401 28.740244-5.551288 31.171668 2.457817 73.738055 4.258959 21.046233.890062 49.003477 1.06474 69.905473-4.828657 10.014167-2.823118 11.269107-10.272004 22.699813-10.272004 13.439575 0 15.338443 14.547373 42.755076 14.547373 25.319768 0 31.984476-16.960004 47.32251-16.960004s26.930786 16.247943 43.862612 16.247943c23.116522 0 28.543768-12.949544 39.69534-12.949544 14.202336 0 6.973559 14.681668 72.654218 14.681668 35.808229 0 47.685746-6.199054 70.2886-6.199054 20.785565 0 39.733605 6.136721 75.139346 6.151217 20.283838 0 28.41056-2.037429 42.179008-1.999015 12.247779.034066 18.655985 1.60907 33.689598 1.984519 30.763683.768294 70.45773.561725 115.991278.645802l-960-.000725s52.5362781-.079004 66.9393689-.582744c16.4306504-.574771 23.3128018-1.530455 36.4053951-1.530455z" fill="url(#n)" opacity=".6981957" style="mix-blend-mode:multiply"/><path d="M103.344764 118.867541c13.092594 0 17.80058.786494 46.866388.786494 25.088989 0 39.662383-.407315 59.867921-2.498251 28.740244-2.973904 31.171668 1.316688 73.738055 2.281585 21.046233.476819 49.003477.570397 69.905473-2.58678 10.014167-1.512385 11.269107-5.50286 22.699813-5.50286 13.439575 0 15.338443 7.793236 42.755076 7.793236 25.319768 0 31.984476-9.085716 47.32251-9.085716s26.930786 8.704255 43.862612 8.704255c23.116522 0 28.543768-6.937256 39.69534-6.937256 14.202336 0 6.973559 7.865179 72.654218 7.865179 35.808229 0 47.685746-3.320921 70.2886-3.320921 20.785565 0 39.733605 3.287529 75.139346 3.295294 20.283838 0 28.41056-1.09148 42.179008-1.0709 12.247779.018249 18.655985.862001 33.689598 1.063135 30.763683.411586 70.45773.300923 115.991278.345965l-960-.000388s52.5362781-.042324 66.9393689-.312185c16.4306504-.307913 23.3128018-.819886 36.4053951-.819886z" fill="url(#o)" opacity=".5014648" style="mix-blend-mode:multiply"/><path d="M103.344764 116.149639c13.092594 0 17.80058 2.674079 46.866388 2.674079 25.088989 0 39.662383-1.384871 59.867921-8.494052 28.740244-10.111275 31.171668 4.476737 73.738055 7.75739 21.046233 1.621184 49.003477 1.939348 69.905473-8.795053 10.014167-5.14211 11.269107-18.7097227 22.699813-18.7097227 13.439575 0 15.338443 26.4970017 42.755076 26.4970017 25.319768 0 31.984476-30.8914367 47.32251-30.8914367s26.930786 29.5944677 43.862612 29.5944677c23.116522 0 28.543768-23.5866692 39.69534-23.5866692 14.202336 0 6.973559 26.7416092 72.654218 26.7416092 35.808229 0 47.685746-11.291134 70.2886-11.291134 20.785565 0 39.733605 11.177599 75.139346 11.204002 20.283838 0 28.41056-3.711032 42.179008-3.641062 12.247779.062049 18.655985 2.930804 33.689598 3.614659C874.772405 120.223111 914.466452 119.846859 960 120l-960-.00132s52.5362781-.1439 66.9393689-1.061427c16.4306504-1.046904 23.3128018-2.787614 36.4053951-2.787614z" fill="url(#p)" opacity=".4027158" style="mix-blend-mode:multiply"/><path d="M103.344764 116.904612c13.092594 0 17.80058 2.149749 46.866388 2.149749 25.088989 0 39.662383-1.113327 59.867921-6.828551 28.740244-8.128672 31.171668 3.598946 73.738055 6.236333 21.046233 1.303305 49.003477 1.559083 69.905473-7.070533 10.014167-4.133853 11.269107-15.0411494 22.699813-15.0411494 13.439575 0 15.338443 21.3015114 42.755076 21.3015114 25.319768 0 31.984476-24.8342924 47.32251-24.8342924s26.930786 23.7916304 43.862612 23.7916304c23.116522 0 28.543768-18.9618317 39.69534-18.9618317 14.202336 0 6.973559 21.4981567 72.654218 21.4981567 35.808229 0 47.685746-9.077187 70.2886-9.077187 20.785565 0 39.733605 8.985913 75.139346 9.00714 20.283838 0 28.41056-2.983379 42.179008-2.927129 12.247779.049882 18.655985 2.356137 33.689598 2.905902C874.772405 120.179364 914.466452 119.876887 960 120l-960-.001061s52.5362781-.115685 66.9393689-.853304c16.4306504-.841629 23.3128018-2.241023 36.4053951-2.241023z" fill="url(#q)" opacity=".5801944" style="mix-blend-mode:multiply"/><path d="M103.344764 107.523193c13.092594 0 17.80058 8.665152 46.866388 8.665152 25.088989 0 39.662383-4.487571 59.867921-27.5243412 28.740244-32.7648321 31.171668 14.5065342 73.738055 25.1372442 21.046233 5.253325 49.003477 6.284311 69.905473-28.4997143 10.014167-16.6626218 11.269107-60.6274584 22.699813-60.6274584 13.439575 0 15.338443 85.8615557 42.755076 85.8615557 25.319768 0 30.454448-65.0404379 40.320256-104.6029352 1.973986-7.9099327 10.926791-7.9105894 13.047008 0C482.969794 44.8288308 493.430786 106.3329 510.362612 106.3329c23.116522 0 28.543768-76.4308408 39.69534-76.4308408 14.202336 0 6.973559 86.6541898 72.654218 86.6541898 35.808229 0 47.685746-36.5880788 70.2886-36.5880788 20.785565 0 39.733605 36.2201748 75.139346 36.3057338 20.283838 0 28.41056-12.025322 42.179008-11.798591 12.247779.201064 18.655985 9.497053 33.689598 11.713032C874.772405 120.722974 914.466452 119.503758 960 120l-960-.004278s52.5362781-.466297 66.9393689-3.439473c16.4306504-3.392416 23.3128018-9.033056 36.4053951-9.033056z" fill="url(#j)" opacity=".45" transform="matrix(1 0 0 -1 0 240)"/><path d="M103.344764 112.210612c13.092594 0 17.80058 5.409736 46.866388 5.409736 25.088989 0 39.662383-2.801633 59.867921-17.183705 28.740244-20.4553922 31.171668 9.056566 73.738055 15.693418 21.046233 3.2797 49.003477 3.923354 69.905473-17.7926394 10.014167-10.4026313 11.269107-37.8502917 22.699813-37.8502917 13.439575 0 15.338443 53.6041751 42.755076 53.6041751 25.319768 0 32.608155-75.2621009 48.047608-74.7755462 15.439453.4865547 26.205688 72.1517422 43.137514 72.1517422 23.116522 0 28.543768-47.7164917 39.69534-47.7164917 14.202336 0 6.973559 54.0990247 72.654218 54.0990247 35.808229 0 47.685746-22.8422813 70.2886-22.8422813 20.785565 0 39.733605 22.6125953 75.139346 22.6660103 20.283838 0 28.41056-7.507521 42.179008-7.365971 12.247779.125526 18.655985 5.9291 33.689598 7.312556C874.772405 120.451359 914.466452 119.690191 960 120l-960-.002671s52.5362781-.291113 66.9393689-2.147295c16.4306504-2.117917 23.3128018-5.639422 36.4053951-5.639422z" fill="url(#k)" opacity=".317127" transform="matrix(1 0 0 -1 0 240)"/><path d="M103.344764 113.855651c13.092594 0 17.80058 4.267255 46.866388 4.267255 25.088989 0 39.662383-2.209957 59.867921-13.554682 28.740244-16.1354233 31.171668 7.143911 73.738055 12.379128 21.046233 2.587061 49.003477 3.094783 69.905473-14.035016 10.014167-8.2057019 11.269107-29.8566976 22.699813-29.8566976 13.439575 0 15.338443 42.2835226 42.755076 42.2835226 25.319768 0 32.608155-59.3675163 48.047608-58.9837169 15.439453.3837993 26.205688 56.9140329 43.137514 56.9140329 23.116522 0 28.543768-37.639257 39.69534-37.639257 14.202336 0 6.973559 42.673865 72.654218 42.673865 35.808229 0 47.685746-18.018226 70.2886-18.018226 20.785565 0 39.733605 17.837047 75.139346 17.879182 20.283838 0 28.41056-5.92201 42.179008-5.810354 12.247779.099016 18.655985 4.676934 33.689598 5.768219C874.772405 120.356037 914.466452 119.75562 960 120l-960-.002107s52.5362781-.229633 66.9393689-1.693808c16.4306504-1.670635 23.3128018-4.448434 36.4053951-4.448434z" fill="url(#l)" opacity=".296968" transform="matrix(1 0 0 -1 0 240)"/><path d="M103.344764 115.290155c13.092594 0 17.80058 3.270991 46.866388 3.270991 25.088989 0 39.662383-1.694004 59.867921-10.390108 28.740244-12.3683297 31.171668 5.476043 73.738055 9.489008 21.046233 1.983067 49.003477 2.372252 69.905473-10.7583 10.014167-6.289939 11.269107-22.886136 22.699813-22.886136 13.439575 0 15.338443 32.411704 42.755076 32.411704 25.319768 0 30.206787-43.4991372 48.028565-43.4991372 17.821777 0 26.224731 41.9126572 43.156557 41.9126572 23.116522 0 28.543768-28.8517229 39.69534-28.8517229 14.202336 0 6.973559 32.7109139 72.654218 32.7109139 35.808229 0 47.685746-13.811559 70.2886-13.811559 20.785565 0 39.733605 13.67268 75.139346 13.704978 20.283838 0 28.41056-4.539415 42.179008-4.453827 12.247779.0759 18.655985 3.585024 33.689598 4.421529C874.772405 120.272914 914.466452 119.812674 960 120c-211.242188-.000355-369.673829-.000622-475.294923-.0008-107.71224-.000181-269.280599-.000452-484.705077-.000815 0 0 52.5362781-.176021 66.9393689-1.29836 16.4306504-1.280596 23.3128018-3.40987 36.4053951-3.40987z" fill="url(#m)" opacity=".5954939" style="mix-blend-mode:multiply" transform="matrix(1 0 0 -1 0 240)"/><path d="M103.344764 117.886076c13.092594 0 17.80058 1.468122 46.866388 1.468122 25.088989 0 39.662383-.760321 59.867921-4.663401 28.740244-5.551288 31.171668 2.457817 73.738055 4.258959 21.046233.890062 49.003477 1.06474 69.905473-4.828657 10.014167-2.823118 11.269107-10.272004 22.699813-10.272004 13.439575 0 15.338443 14.547373 42.755076 14.547373 25.319768 0 31.984476-16.960004 47.32251-16.960004s26.930786 16.247943 43.862612 16.247943c23.116522 0 28.543768-12.949544 39.69534-12.949544 14.202336 0 6.973559 14.681668 72.654218 14.681668 35.808229 0 47.685746-6.199054 70.2886-6.199054 20.785565 0 39.733605 6.136721 75.139346 6.151217 20.283838 0 28.41056-2.037429 42.179008-1.999015 12.247779.034066 18.655985 1.60907 33.689598 1.984519 30.763683.768294 70.45773.561725 115.991278.645802l-960-.000725s52.5362781-.079004 66.9393689-.582744c16.4306504-.574771 23.3128018-1.530455 36.4053951-1.530455z" fill="url(#n)" opacity=".6981957" style="mix-blend-mode:multiply" transform="matrix(1 0 0 -1 0 240)"/><path d="M103.344764 118.867541c13.092594 0 17.80058.786494 46.866388.786494 25.088989 0 39.662383-.407315 59.867921-2.498251 28.740244-2.973904 31.171668 1.316688 73.738055 2.281585 21.046233.476819 49.003477.570397 69.905473-2.58678 10.014167-1.512385 11.269107-5.50286 22.699813-5.50286 13.439575 0 15.338443 7.793236 42.755076 7.793236 25.319768 0 31.984476-9.085716 47.32251-9.085716s26.930786 8.704255 43.862612 8.704255c23.116522 0 28.543768-6.937256 39.69534-6.937256 14.202336 0 6.973559 7.865179 72.654218 7.865179 35.808229 0 47.685746-3.320921 70.2886-3.320921 20.785565 0 39.733605 3.287529 75.139346 3.295294 20.283838 0 28.41056-1.09148 42.179008-1.0709 12.247779.018249 18.655985.862001 33.689598 1.063135 30.763683.411586 70.45773.300923 115.991278.345965l-960-.000388s52.5362781-.042324 66.9393689-.312185c16.4306504-.307913 23.3128018-.819886 36.4053951-.819886z" fill="url(#o)" opacity=".5014648" style="mix-blend-mode:multiply" transform="matrix(1 0 0 -1 0 240)"/><path d="M103.344764 116.149639c13.092594 0 17.80058 2.674079 46.866388 2.674079 25.088989 0 39.662383-1.384871 59.867921-8.494052 28.740244-10.111275 31.171668 4.476737 73.738055 7.75739 21.046233 1.621184 49.003477 1.939348 69.905473-8.795053 10.014167-5.14211 11.269107-18.7097227 22.699813-18.7097227 13.439575 0 15.338443 26.4970017 42.755076 26.4970017 25.319768 0 31.984476-30.8914367 47.32251-30.8914367s26.930786 29.5944677 43.862612 29.5944677c23.116522 0 28.543768-23.5866692 39.69534-23.5866692 14.202336 0 6.973559 26.7416092 72.654218 26.7416092 35.808229 0 47.685746-11.291134 70.2886-11.291134 20.785565 0 39.733605 11.177599 75.139346 11.204002 20.283838 0 28.41056-3.711032 42.179008-3.641062 12.247779.062049 18.655985 2.930804 33.689598 3.614659C874.772405 120.223111 914.466452 119.846859 960 120l-960-.00132s52.5362781-.1439 66.9393689-1.061427c16.4306504-1.046904 23.3128018-2.787614 36.4053951-2.787614z" fill="url(#p)" opacity=".4027158" style="mix-blend-mode:multiply" transform="matrix(1 0 0 -1 0 240)"/><path d="M103.344764 116.904612c13.092594 0 17.80058 2.149749 46.866388 2.149749 25.088989 0 39.662383-1.113327 59.867921-6.828551 28.740244-8.128672 31.171668 3.598946 73.738055 6.236333 21.046233 1.303305 49.003477 1.559083 69.905473-7.070533 10.014167-4.133853 11.269107-15.0411494 22.699813-15.0411494 13.439575 0 15.338443 21.3015114 42.755076 21.3015114 25.319768 0 31.984476-24.8342924 47.32251-24.8342924s26.930786 23.7916304 43.862612 23.7916304c23.116522 0 28.543768-18.9618317 39.69534-18.9618317 14.202336 0 6.973559 21.4981567 72.654218 21.4981567 35.808229 0 47.685746-9.077187 70.2886-9.077187 20.785565 0 39.733605 8.985913 75.139346 9.00714 20.283838 0 28.41056-2.983379 42.179008-2.927129 12.247779.049882 18.655985 2.356137 33.689598 2.905902C874.772405 120.179364 914.466452 119.876887 960 120l-960-.001061s52.5362781-.115685 66.9393689-.853304c16.4306504-.841629 23.3128018-2.241023 36.4053951-2.241023z" fill="url(#q)" opacity=".5801944" style="mix-blend-mode:multiply" transform="matrix(1 0 0 -1 0 240)"/></g></g></svg>